<?xml version="1.0" encoding="UTF-8" standalone="no"?>
<!DOCTYPE svg PUBLIC "-//W3C//DTD SVG 1.1//EN"
 "http://www.w3.org/Graphics/SVG/1.1/DTD/svg11.dtd">
<!-- Generated by graphviz version 13.0.1 (20250615.1724)
 -->
<!-- Title: ftrace Pages: 1 -->
<svg width="536pt" height="573pt"
 viewBox="0.00 0.00 536.00 573.00" xmlns="http://www.w3.org/2000/svg" xmlns:xlink="http://www.w3.org/1999/xlink">
<g id="graph0" class="graph" transform="scale(1 1) rotate(0) translate(4 568.5)">
<title>ftrace</title>
<polygon fill="white" stroke="none" points="-4,4 -4,-568.5 532,-568.5 532,4 -4,4"/>
<g id="clust1" class="cluster">
<title>cluster_0</title>
<path fill="#f0f0f0" stroke="#4a86c8" d="M20,-83.88C20,-83.88 204,-83.88 204,-83.88 210,-83.88 216,-89.88 216,-95.88 216,-95.88 216,-544.5 216,-544.5 216,-550.5 210,-556.5 204,-556.5 204,-556.5 20,-556.5 20,-556.5 14,-556.5 8,-550.5 8,-544.5 8,-544.5 8,-95.88 8,-95.88 8,-89.88 14,-83.88 20,-83.88"/>
<text xml:space="preserve" text-anchor="middle" x="112" y="-539.2" font-family="Times,serif" font-size="14.00">OrderService.processOrder [17&#45;23]</text>
</g>
<g id="clust2" class="cluster">
<title>cluster_1</title>
<path fill="#f0f0f0" stroke="#4a86c8" d="M236,-8C236,-8 436,-8 436,-8 442,-8 448,-14 448,-20 448,-20 448,-151.25 448,-151.25 448,-157.25 442,-163.25 436,-163.25 436,-163.25 236,-163.25 236,-163.25 230,-163.25 224,-157.25 224,-151.25 224,-151.25 224,-20 224,-20 224,-14 230,-8 236,-8"/>
<text xml:space="preserve" text-anchor="middle" x="336" y="-145.95" font-family="Times,serif" font-size="14.00">JdbcOrderRepository.save [15&#45;16]</text>
</g>
<g id="clust3" class="cluster">
<title>cluster_2</title>
<path fill="#f0f0f0" stroke="#4a86c8" d="M236,-182.25C236,-182.25 401,-182.25 401,-182.25 407,-182.25 413,-188.25 413,-194.25 413,-194.25 413,-246.75 413,-246.75 413,-252.75 407,-258.75 401,-258.75 401,-258.75 236,-258.75 236,-258.75 230,-258.75 224,-252.75 224,-246.75 224,-246.75 224,-194.25 224,-194.25 224,-188.25 230,-182.25 236,-182.25"/>
<text xml:space="preserve" text-anchor="middle" x="318.5" y="-241.45" font-family="Times,serif" font-size="14.00">OrderService.transform [33&#45;33]</text>
</g>
<g id="clust4" class="cluster">
<title>cluster_3</title>
<path fill="#f0f0f0" stroke="#4a86c8" d="M236,-277.75C236,-277.75 508,-277.75 508,-277.75 514,-277.75 520,-283.75 520,-289.75 520,-289.75 520,-449 520,-449 520,-455 514,-461 508,-461 508,-461 236,-461 236,-461 230,-461 224,-455 224,-449 224,-449 224,-289.75 224,-289.75 224,-283.75 230,-277.75 236,-277.75"/>
<text xml:space="preserve" text-anchor="middle" x="372" y="-443.7" font-family="Times,serif" font-size="14.00">JdbcOrderRepository.findById [7&#45;10]</text>
</g>
<!-- n0 -->
<g id="node1" class="node">
<title>n0</title>
<path fill="#d4edda" stroke="black" d="M193.38,-524C193.38,-524 92.62,-524 92.62,-524 86.62,-524 80.62,-518 80.62,-512 80.62,-512 80.62,-500 80.62,-500 80.62,-494 86.62,-488 92.62,-488 92.62,-488 193.38,-488 193.38,-488 199.38,-488 205.38,-494 205.38,-500 205.38,-500 205.38,-512 205.38,-512 205.38,-518 199.38,-524 193.38,-524"/>
<text xml:space="preserve" text-anchor="middle" x="143" y="-507.75" font-family="Helvetica,sans-Serif" font-size="10.00">L17</text>
<text xml:space="preserve" text-anchor="middle" x="143" y="-496.5" font-family="Helvetica,sans-Serif" font-size="10.00">OrderRepository.findById</text>
</g>
<!-- n1 -->
<g id="node2" class="node">
<title>n1</title>
<path fill="#cce5ff" stroke="black" d="M129.06,-423.57C129.06,-423.57 83.19,-402.93 83.19,-402.93 77.72,-400.46 77.72,-395.54 83.19,-393.07 83.19,-393.07 129.06,-372.43 129.06,-372.43 134.53,-369.96 145.47,-369.96 150.94,-372.43 150.94,-372.43 196.81,-393.07 196.81,-393.07 202.28,-395.54 202.28,-400.46 196.81,-402.93 196.81,-402.93 150.94,-423.57 150.94,-423.57 145.47,-426.04 134.53,-426.04 129.06,-423.57"/>
<text xml:space="preserve" text-anchor="middle" x="140" y="-399.75" font-family="Helvetica,sans-Serif" font-size="10.00">L18</text>
<text xml:space="preserve" text-anchor="middle" x="140" y="-388.5" font-family="Helvetica,sans-Serif" font-size="10.00">order != null</text>
</g>
<!-- n0&#45;&gt;n1 -->
<g id="edge1" class="edge">
<title>n0&#45;&gt;n1</title>
<path fill="none" stroke="black" d="M142.52,-487.97C142.15,-474.94 141.63,-456.42 141.15,-439.65"/>
<polygon fill="black" stroke="black" points="144.66,-439.82 140.88,-429.92 137.66,-440.01 144.66,-439.82"/>
</g>
<!-- n9 -->
<g id="node10" class="node">
<title>n9</title>
<path fill="#cce5ff" stroke="black" d="M326.39,-421.31C326.39,-421.31 304.86,-405.19 304.86,-405.19 300.05,-401.6 300.05,-394.4 304.86,-390.81 304.86,-390.81 326.39,-374.69 326.39,-374.69 331.2,-371.1 340.8,-371.1 345.61,-374.69 345.61,-374.69 367.14,-390.81 367.14,-390.81 371.95,-394.4 371.95,-401.6 367.14,-405.19 367.14,-405.19 345.61,-421.31 345.61,-421.31 340.8,-424.9 331.2,-424.9 326.39,-421.31"/>
<text xml:space="preserve" text-anchor="middle" x="336" y="-399.75" font-family="Helvetica,sans-Serif" font-size="10.00">L7</text>
<text xml:space="preserve" text-anchor="middle" x="336" y="-388.5" font-family="Helvetica,sans-Serif" font-size="10.00">id &gt; 0</text>
</g>
<!-- n0&#45;&gt;n9 -->
<g id="edge11" class="edge">
<title>n0&#45;&gt;n9</title>
<path fill="none" stroke="#e05050" stroke-width="1.5" d="M174.44,-487.73C209.67,-468.38 266.57,-437.13 302.59,-417.35"/>
<polygon fill="#e05050" stroke="#e05050" stroke-width="1.5" points="303.98,-420.58 311.06,-412.7 300.61,-414.44 303.98,-420.58"/>
</g>
<!-- n2 -->
<g id="node3" class="node">
<title>n2</title>
<path fill="#d4edda" stroke="black" d="M123.62,-321.75C123.62,-321.75 30.38,-321.75 30.38,-321.75 24.37,-321.75 18.38,-315.75 18.38,-309.75 18.38,-309.75 18.38,-297.75 18.38,-297.75 18.38,-291.75 24.38,-285.75 30.38,-285.75 30.38,-285.75 123.62,-285.75 123.62,-285.75 129.62,-285.75 135.62,-291.75 135.62,-297.75 135.62,-297.75 135.62,-309.75 135.62,-309.75 135.62,-315.75 129.62,-321.75 123.62,-321.75"/>
<text xml:space="preserve" text-anchor="middle" x="77" y="-305.5" font-family="Helvetica,sans-Serif" font-size="10.00">L21</text>
<text xml:space="preserve" text-anchor="middle" x="77" y="-294.25" font-family="Helvetica,sans-Serif" font-size="10.00">OrderService.transform</text>
</g>
<!-- n1&#45;&gt;n2 -->
<g id="edge5" class="edge">
<title>n1&#45;&gt;n2</title>
<path fill="none" stroke="#dc3545" d="M124.43,-374.2C115.57,-361.23 104.44,-344.93 95.18,-331.38"/>
<polygon fill="#dc3545" stroke="#dc3545" points="98.22,-329.62 89.69,-323.33 92.44,-333.56 98.22,-329.62"/>
<text xml:space="preserve" text-anchor="middle" x="109.24" y="-340.95" font-family="Helvetica,sans-Serif" font-size="9.00" fill="#dc3545">F</text>
</g>
<!-- n5 -->
<g id="node6" class="node">
<title>n5</title>
<path fill="white" stroke="black" d="M196,-321.75C196,-321.75 166,-321.75 166,-321.75 160,-321.75 154,-315.75 154,-309.75 154,-309.75 154,-297.75 154,-297.75 154,-291.75 160,-285.75 166,-285.75 166,-285.75 196,-285.75 196,-285.75 202,-285.75 208,-291.75 208,-297.75 208,-297.75 208,-309.75 208,-309.75 208,-315.75 202,-321.75 196,-321.75"/>
<text xml:space="preserve" text-anchor="middle" x="181" y="-299.88" font-family="Helvetica,sans-Serif" font-size="10.00">L19</text>
</g>
<!-- n1&#45;&gt;n5 -->
<g id="edge4" class="edge">
<title>n1&#45;&gt;n5</title>
<path fill="none" stroke="#28a745" d="M150.99,-372.28C156.42,-360.06 162.99,-345.27 168.6,-332.64"/>
<polygon fill="#28a745" stroke="#28a745" points="171.75,-334.17 172.62,-323.61 165.36,-331.33 171.75,-334.17"/>
<text xml:space="preserve" text-anchor="middle" x="168" y="-340.95" font-family="Helvetica,sans-Serif" font-size="9.00" fill="#28a745">T</text>
</g>
<!-- n3 -->
<g id="node4" class="node">
<title>n3</title>
<path fill="#d4edda" stroke="black" d="M176.88,-226.25C176.88,-226.25 91.12,-226.25 91.12,-226.25 85.12,-226.25 79.12,-220.25 79.12,-214.25 79.12,-214.25 79.12,-202.25 79.12,-202.25 79.12,-196.25 85.12,-190.25 91.12,-190.25 91.12,-190.25 176.88,-190.25 176.88,-190.25 182.88,-190.25 188.88,-196.25 188.88,-202.25 188.88,-202.25 188.88,-214.25 188.88,-214.25 188.88,-220.25 182.88,-226.25 176.88,-226.25"/>
<text xml:space="preserve" text-anchor="middle" x="134" y="-210" font-family="Helvetica,sans-Serif" font-size="10.00">L22</text>
<text xml:space="preserve" text-anchor="middle" x="134" y="-198.75" font-family="Helvetica,sans-Serif" font-size="10.00">OrderRepository.save</text>
</g>
<!-- n2&#45;&gt;n3 -->
<g id="edge2" class="edge">
<title>n2&#45;&gt;n3</title>
<path fill="none" stroke="black" d="M87.45,-285.6C95.84,-271.85 107.76,-252.29 117.44,-236.41"/>
<polygon fill="black" stroke="black" points="120.41,-238.26 122.63,-227.9 114.44,-234.62 120.41,-238.26"/>
</g>
<!-- n8 -->
<g id="node9" class="node">
<title>n8</title>
<path fill="#d4edda" stroke="black" d="M322.12,-226.25C322.12,-226.25 243.88,-226.25 243.88,-226.25 237.88,-226.25 231.88,-220.25 231.88,-214.25 231.88,-214.25 231.88,-202.25 231.88,-202.25 231.88,-196.25 237.88,-190.25 243.88,-190.25 243.88,-190.25 322.12,-190.25 322.12,-190.25 328.12,-190.25 334.12,-196.25 334.12,-202.25 334.12,-202.25 334.12,-214.25 334.12,-214.25 334.12,-220.25 328.12,-226.25 322.12,-226.25"/>
<text xml:space="preserve" text-anchor="middle" x="283" y="-210" font-family="Helvetica,sans-Serif" font-size="10.00">L33</text>
<text xml:space="preserve" text-anchor="middle" x="283" y="-198.75" font-family="Helvetica,sans-Serif" font-size="10.00">String.toUpperCase</text>
</g>
<!-- n2&#45;&gt;n8 -->
<g id="edge10" class="edge">
<title>n2&#45;&gt;n8</title>
<path fill="none" stroke="#e05050" stroke-width="1.5" d="M122.5,-285.28C129.97,-282.63 137.67,-280.02 145,-277.75 177.85,-267.58 189.14,-273.92 220,-258.75 232.81,-252.45 245.47,-243.25 256.04,-234.49"/>
<polygon fill="#e05050" stroke="#e05050" stroke-width="1.5" points="258.11,-237.33 263.39,-228.14 253.53,-232.03 258.11,-237.33"/>
</g>
<!-- n4 -->
<g id="node5" class="node">
<title>n4</title>
<path fill="white" stroke="black" d="M149,-127.88C149,-127.88 119,-127.88 119,-127.88 113,-127.88 107,-121.88 107,-115.88 107,-115.88 107,-103.88 107,-103.88 107,-97.88 113,-91.88 119,-91.88 119,-91.88 149,-91.88 149,-91.88 155,-91.88 161,-97.88 161,-103.88 161,-103.88 161,-115.88 161,-115.88 161,-121.88 155,-127.88 149,-127.88"/>
<text xml:space="preserve" text-anchor="middle" x="134" y="-106" font-family="Helvetica,sans-Serif" font-size="10.00">L23</text>
</g>
<!-- n3&#45;&gt;n4 -->
<g id="edge3" class="edge">
<title>n3&#45;&gt;n4</title>
<path fill="none" stroke="black" d="M134,-190.02C134,-175.99 134,-155.89 134,-139.46"/>
<polygon fill="black" stroke="black" points="137.5,-139.79 134,-129.79 130.5,-139.79 137.5,-139.79"/>
</g>
<!-- n6 -->
<g id="node7" class="node">
<title>n6</title>
<path fill="#d4edda" stroke="black" d="M428,-130.75C428,-130.75 244,-130.75 244,-130.75 238,-130.75 232,-124.75 232,-118.75 232,-118.75 232,-101 232,-101 232,-95 238,-89 244,-89 244,-89 428,-89 428,-89 434,-89 440,-95 440,-101 440,-101 440,-118.75 440,-118.75 440,-124.75 434,-130.75 428,-130.75"/>
<text xml:space="preserve" text-anchor="middle" x="336" y="-117.25" font-family="Helvetica,sans-Serif" font-size="10.00">L15</text>
<text xml:space="preserve" text-anchor="middle" x="336" y="-106" font-family="Helvetica,sans-Serif" font-size="10.00">PrintStream.println</text>
<text xml:space="preserve" text-anchor="middle" x="336" y="-94.75" font-family="Helvetica,sans-Serif" font-size="10.00">InvokeDynamic.makeConcatWithConstants</text>
</g>
<!-- n3&#45;&gt;n6 -->
<g id="edge9" class="edge">
<title>n3&#45;&gt;n6</title>
<path fill="none" stroke="#e05050" stroke-width="1.5" d="M170.58,-189.8C201.9,-174.85 247.41,-153.14 282.77,-136.27"/>
<polygon fill="#e05050" stroke="#e05050" stroke-width="1.5" points="283.83,-139.65 291.34,-132.18 280.81,-133.33 283.83,-139.65"/>
</g>
<!-- n7 -->
<g id="node8" class="node">
<title>n7</title>
<path fill="white" stroke="black" d="M351,-52C351,-52 321,-52 321,-52 315,-52 309,-46 309,-40 309,-40 309,-28 309,-28 309,-22 315,-16 321,-16 321,-16 351,-16 351,-16 357,-16 363,-22 363,-28 363,-28 363,-40 363,-40 363,-46 357,-52 351,-52"/>
<text xml:space="preserve" text-anchor="middle" x="336" y="-30.12" font-family="Helvetica,sans-Serif" font-size="10.00">L16</text>
</g>
<!-- n6&#45;&gt;n7 -->
<g id="edge6" class="edge">
<title>n6&#45;&gt;n7</title>
<path fill="none" stroke="black" d="M336,-88.69C336,-80.91 336,-71.87 336,-63.45"/>
<polygon fill="black" stroke="black" points="339.5,-63.67 336,-53.67 332.5,-63.67 339.5,-63.67"/>
</g>
<!-- n10 -->
<g id="node11" class="node">
<title>n10</title>
<path fill="#d4edda" stroke="black" d="M428,-321.75C428,-321.75 244,-321.75 244,-321.75 238,-321.75 232,-315.75 232,-309.75 232,-309.75 232,-297.75 232,-297.75 232,-291.75 238,-285.75 244,-285.75 244,-285.75 428,-285.75 428,-285.75 434,-285.75 440,-291.75 440,-297.75 440,-297.75 440,-309.75 440,-309.75 440,-315.75 434,-321.75 428,-321.75"/>
<text xml:space="preserve" text-anchor="middle" x="336" y="-305.5" font-family="Helvetica,sans-Serif" font-size="10.00">L10</text>
<text xml:space="preserve" text-anchor="middle" x="336" y="-294.25" font-family="Helvetica,sans-Serif" font-size="10.00">InvokeDynamic.makeConcatWithConstants</text>
</g>
<!-- n9&#45;&gt;n10 -->
<g id="edge8" class="edge">
<title>n9&#45;&gt;n10</title>
<path fill="none" stroke="#dc3545" d="M336,-367.05C336,-356.27 336,-344.14 336,-333.47"/>
<polygon fill="#dc3545" stroke="#dc3545" points="339.5,-333.7 336,-323.7 332.5,-333.7 339.5,-333.7"/>
<text xml:space="preserve" text-anchor="middle" x="338.62" y="-340.95" font-family="Helvetica,sans-Serif" font-size="9.00" fill="#dc3545">F</text>
</g>
<!-- n11 -->
<g id="node12" class="node">
<title>n11</title>
<path fill="white" stroke="black" d="M500,-321.75C500,-321.75 470,-321.75 470,-321.75 464,-321.75 458,-315.75 458,-309.75 458,-309.75 458,-297.75 458,-297.75 458,-291.75 464,-285.75 470,-285.75 470,-285.75 500,-285.75 500,-285.75 506,-285.75 512,-291.75 512,-297.75 512,-297.75 512,-309.75 512,-309.75 512,-315.75 506,-321.75 500,-321.75"/>
<text xml:space="preserve" text-anchor="middle" x="485" y="-299.88" font-family="Helvetica,sans-Serif" font-size="10.00">L8</text>
</g>
<!-- n9&#45;&gt;n11 -->
<g id="edge7" class="edge">
<title>n9&#45;&gt;n11</title>
<path fill="none" stroke="#28a745" d="M357.99,-383.39C381.66,-368.73 419.74,-345.15 448.04,-327.63"/>
<polygon fill="#28a745" stroke="#28a745" points="449.66,-330.75 456.32,-322.51 445.97,-324.8 449.66,-330.75"/>
<text xml:space="preserve" text-anchor="middle" x="430.85" y="-340.95" font-family="Helvetica,sans-Serif" font-size="9.00" fill="#28a745">T</text>
</g>
</g>
</svg>
